{"glyphs":{":":{"x_min":0,"x_max":482,"ha":482,"o":"m 185 0 l 297 0 l 297 124 l 185 124 z m 185 386 l 297 386 l 297 510 l 185 510 z"},"$":{"x_min":0,"x_max":964,"ha":964,"o":"m 519 72 l 519 320 l 646 320 q 692 320 723 315 q 754 310 772 297 q 791 284 798 262 q 806 240 806 206 q 806 167 797 141 q 788 115 766 100 q 745 85 710 78 q 674 72 620 72 z m 439 408 l 340 408 q 282 408 246 414 q 211 420 192 434 q 172 448 165 471 q 158 494 158 529 q 158 572 172 597 q 185 622 216 634 q 246 646 296 649 q 345 652 416 652 l 439 652 z m 439 72 l 321 72 q 275 72 244 78 q 213 85 194 98 q 175 112 167 132 q 159 152 159 179 l 159 228 l 67 228 l 67 175 q 67 116 89 80 q 111 44 148 24 q 185 5 234 -2 q 282 -8 336 -8 l 439 -8 l 439 -58 l 519 -58 l 519 -8 l 607 -8 q 661 -8 714 -3 q 766 2 807 21 q 848 40 873 78 q 898 116 898 183 l 898 230 q 898 322 834 365 q 770 408 627 408 l 519 408 l 519 652 q 614 652 668 648 q 721 643 748 628 q 775 614 782 587 q 788 560 788 516 l 880 516 l 880 541 q 880 589 866 625 q 853 661 819 685 q 785 709 726 720 q 667 732 576 732 l 519 732 l 519 779 l 439 779 l 439 732 l 366 732 q 290 732 234 724 q 178 715 140 692 q 103 670 84 631 q 66 592 66 530 q 66 460 85 418 q 104 377 148 355 q 191 333 262 326 q 334 320 439 320 z"},"?":{"x_min":0,"x_max":791,"ha":791,"o":"m 47 490 l 133 490 l 133 555 q 133 595 146 617 q 158 639 187 649 q 216 659 264 660 q 313 662 384 662 q 473 662 525 658 q 577 654 604 641 q 631 628 638 602 q 646 576 646 533 q 646 492 641 468 q 636 445 622 431 q 607 417 580 410 q 554 403 511 395 q 446 383 406 372 q 365 362 342 346 q 320 330 312 305 q 304 280 304 240 l 304 221 l 384 221 l 384 243 q 384 264 398 277 q 411 290 430 298 q 448 307 468 311 q 487 315 500 317 q 560 327 604 337 q 648 347 676 368 q 705 388 718 424 q 732 459 732 522 q 732 597 715 639 q 698 681 656 702 q 615 723 544 728 q 474 732 367 732 q 289 732 229 730 q 169 727 128 712 q 88 697 68 664 q 47 631 47 570 z m 288 0 l 400 0 l 400 124 l 288 124 z"},"<":{"x_min":0,"x_max":600,"ha":600,"o":"m 47 215 l 553 -8 l 553 78 l 156 253 l 553 428 l 553 514 l 47 291 z"},"'":{"x_min":0,"x_max":272,"ha":272,"o":"m 87 482 l 185 482 l 185 724 l 87 724 z"},"=":{"x_min":0,"x_max":600,"ha":600,"o":"m 47 322 l 553 322 l 553 392 l 47 392 z m 47 114 l 553 114 l 553 184 l 47 184 z"},"a":{"x_min":0,"x_max":765,"ha":765,"o":"m 608 0 l 694 0 l 694 342 q 694 399 674 434 q 655 468 620 487 q 585 506 536 512 q 486 518 426 518 l 290 518 q 232 518 192 510 q 151 503 126 488 q 100 472 88 447 q 77 422 77 387 l 77 362 l 163 362 l 163 380 q 163 396 168 408 q 173 421 187 430 q 201 439 226 444 q 251 448 292 448 l 418 448 q 467 448 503 444 q 539 441 562 430 q 586 420 597 399 q 608 378 608 344 l 608 248 l 606 248 q 595 266 581 278 q 567 290 546 297 q 525 304 496 306 q 466 309 424 309 l 286 309 q 230 309 186 305 q 143 301 114 288 q 84 274 69 248 q 54 222 54 179 l 54 145 q 54 109 62 80 q 69 52 88 32 q 106 13 138 2 q 169 -8 218 -8 l 424 -8 q 473 -8 504 -6 q 536 -3 556 4 q 575 11 586 22 q 597 34 606 51 l 608 51 z m 608 137 q 608 113 596 98 q 584 84 558 76 q 533 67 492 64 q 450 62 392 62 l 278 62 q 234 62 207 66 q 180 71 165 81 q 150 91 145 106 q 140 122 140 143 l 140 159 q 140 183 146 198 q 153 214 170 223 q 186 232 213 236 q 240 239 282 239 l 414 239 q 463 239 500 236 q 536 234 560 226 q 584 217 596 202 q 608 186 608 160 z"},"L":{"x_min":0,"x_max":765,"ha":765,"o":"m 96 0 l 756 0 l 756 80 l 194 80 l 194 724 l 96 724 z"},"3":{"x_min":0,"x_max":964,"ha":964,"o":"m 388 329 l 690 329 q 722 329 744 326 q 766 323 780 310 q 794 298 800 272 q 807 247 807 203 q 807 155 800 128 q 794 102 772 90 q 750 77 708 74 q 666 72 596 72 l 317 72 q 264 72 233 80 q 202 88 186 106 q 171 124 167 154 q 163 183 163 225 l 71 225 l 71 179 q 71 128 84 92 q 96 57 126 34 q 156 12 206 2 q 256 -8 330 -8 l 637 -8 q 732 -8 784 6 q 837 21 862 48 q 888 75 894 114 q 899 153 899 203 q 899 252 892 282 q 885 313 870 331 q 854 349 830 357 q 807 365 774 369 l 774 371 q 810 380 832 390 q 855 399 867 417 q 879 435 883 466 q 887 496 887 546 q 887 595 876 630 q 865 665 837 688 q 809 710 761 721 q 713 732 639 732 l 280 732 q 173 732 124 688 q 76 645 76 557 l 76 508 l 168 508 l 168 560 q 168 585 177 602 q 186 620 206 631 q 227 642 260 647 q 293 652 342 652 l 622 652 q 678 652 712 648 q 746 644 764 632 q 783 619 789 594 q 795 570 795 528 q 795 496 792 473 q 790 450 778 436 q 765 422 739 416 q 713 409 665 409 l 388 409 z"},";":{"x_min":0,"x_max":482,"ha":482,"o":"m 185 0 l 223 0 q 223 -32 213 -45 q 203 -58 174 -56 l 174 -114 q 205 -114 228 -109 q 251 -104 266 -91 q 282 -78 290 -56 q 297 -35 297 -3 l 297 124 l 185 124 z m 185 386 l 297 386 l 297 510 l 185 510 z"},"J":{"x_min":0,"x_max":791,"ha":791,"o":"m 26 187 q 26 85 81 38 q 136 -8 265 -8 l 451 -8 q 518 -8 566 2 q 613 11 643 35 q 673 59 687 100 q 701 140 701 203 l 701 724 l 603 724 l 603 184 q 603 149 594 127 q 585 105 566 93 q 546 81 516 76 q 485 72 443 72 l 272 72 q 225 72 195 78 q 165 83 148 98 q 131 113 124 140 q 118 167 118 210 l 118 267 l 26 267 z"},"V":{"x_min":0,"x_max":964,"ha":964,"o":"m 422 0 l 542 0 l 943 724 l 833 724 l 482 88 l 131 724 l 21 724 z"},"\"":{"x_min":0,"x_max":334,"ha":334,"o":"m 202 482 l 300 482 l 300 724 l 202 724 z m 34 482 l 132 482 l 132 724 l 34 724 z"},"7":{"x_min":0,"x_max":964,"ha":964,"o":"m 248 0 l 365 0 l 902 615 l 902 724 l 71 724 l 71 644 l 810 644 z"},"S":{"x_min":0,"x_max":987,"ha":987,"o":"m 78 175 q 78 116 100 80 q 122 44 159 24 q 196 5 244 -2 q 293 -8 347 -8 l 619 -8 q 673 -8 726 -3 q 778 2 819 21 q 860 40 885 78 q 910 116 910 183 l 910 230 q 910 322 846 365 q 782 408 639 408 l 349 408 q 292 408 256 414 q 221 420 202 434 q 182 447 176 469 q 169 491 169 523 q 169 568 182 594 q 196 619 226 632 q 256 645 305 648 q 354 652 425 652 l 529 652 q 625 652 680 647 q 734 642 760 627 q 787 612 793 586 q 799 559 800 516 l 892 516 l 892 541 q 892 589 878 625 q 865 661 831 685 q 797 709 738 720 q 679 732 588 732 l 377 732 q 301 732 245 724 q 189 715 152 692 q 114 670 96 631 q 77 592 77 530 q 77 458 97 416 q 117 374 164 353 q 210 332 286 326 q 362 320 474 320 l 660 320 q 706 320 736 315 q 767 310 785 297 q 803 284 810 262 q 818 240 818 206 q 818 167 809 141 q 800 115 779 100 q 758 85 722 78 q 687 72 634 72 l 330 72 q 284 72 254 78 q 223 85 204 98 q 186 111 178 130 q 170 150 170 177 l 170 228 l 78 228 z"},"}":{"x_min":0,"x_max":370,"ha":370,"o":"m 46 0 l 124 0 q 142 0 162 8 q 182 17 198 34 q 215 50 226 74 q 237 99 237 132 l 237 221 q 237 246 245 266 q 253 285 266 298 q 278 312 294 320 q 309 327 324 327 l 324 397 q 309 397 294 404 q 278 412 266 426 q 253 440 245 460 q 237 481 237 508 l 237 592 q 237 625 226 650 q 215 674 198 690 q 182 707 162 716 q 142 724 124 724 l 46 724 l 46 654 l 101 654 q 116 654 126 647 q 136 640 142 628 q 147 617 149 603 q 151 589 151 574 l 151 494 q 151 456 162 432 q 172 407 187 392 q 202 378 218 372 q 234 365 244 363 l 244 361 q 234 359 218 352 q 202 345 187 330 q 172 316 162 292 q 151 269 151 235 l 151 150 q 151 135 149 121 q 147 107 142 96 q 136 84 126 77 q 116 70 101 70 l 46 70 z"},"Z":{"x_min":0,"x_max":913,"ha":913,"o":"m 42 0 l 871 0 l 871 80 l 193 80 l 857 654 l 857 724 l 63 724 l 63 644 l 703 644 l 42 76 z"},"x":{"x_min":0,"x_max":690,"ha":690,"o":"m 5 0 l 128 0 l 345 221 l 562 0 l 685 0 l 406 272 l 648 510 l 530 510 l 345 323 l 160 510 l 42 510 l 284 272 z"},")":{"x_min":0,"x_max":370,"ha":370,"o":"m 47 -8 l 113 -8 q 179 -8 218 10 q 256 28 276 64 q 297 99 303 150 q 309 202 309 268 l 309 508 q 309 583 292 628 q 276 672 249 696 q 222 719 186 726 q 151 732 113 732 l 47 732 l 47 652 l 109 652 q 172 652 194 626 q 217 599 217 537 l 217 227 q 217 176 210 146 q 204 115 191 98 q 178 82 158 77 q 137 72 109 72 l 47 72 z"},"&":{"x_min":0,"x_max":1087,"ha":1087,"o":"m 1053 0 l 1089 74 l 943 151 q 945 165 946 178 q 948 191 948 203 l 948 356 l 856 356 l 856 194 l 298 489 q 285 496 278 504 q 271 511 268 522 q 264 532 264 545 q 263 558 263 576 q 263 594 266 608 q 270 622 280 632 q 291 641 309 646 q 327 652 356 652 l 681 652 q 721 652 748 633 q 776 614 776 564 l 776 510 l 868 510 l 868 570 q 868 607 858 637 q 849 667 826 688 q 804 709 768 720 q 732 732 680 732 l 327 732 q 291 732 262 724 q 232 716 210 698 q 189 680 177 652 q 165 625 165 586 q 165 547 168 524 q 171 501 180 486 q 188 470 204 458 q 219 446 244 430 l 244 428 q 190 428 156 416 q 122 404 102 379 q 82 354 74 317 q 67 280 67 230 q 67 168 78 123 q 90 78 120 49 q 149 20 200 6 q 251 -8 329 -8 l 679 -8 q 716 -8 752 -6 q 787 -3 818 6 q 850 14 876 29 q 901 44 918 70 z m 828 113 q 820 90 778 81 q 737 72 666 72 l 331 72 q 277 72 244 82 q 212 91 194 108 q 176 126 170 151 q 165 176 165 207 l 165 256 q 165 299 180 324 q 195 350 215 362 q 235 375 254 378 q 274 382 284 382 l 314 382 z"},"_":{"x_min":0,"x_max":500,"ha":500,"o":"m 0 -125 l 500 -125 l 500 -75 l 0 -75 z"},"v":{"x_min":0,"x_max":690,"ha":690,"o":"m 294 0 l 396 0 l 684 510 l 593 510 l 345 70 l 97 510 l 6 510 z"},"O":{"x_min":0,"x_max":1087,"ha":1087,"o":"m 912 226 q 912 179 898 149 q 885 119 862 102 q 839 85 808 78 q 777 72 742 72 l 345 72 q 310 72 279 78 q 248 85 225 102 q 202 119 188 149 q 175 179 175 226 l 175 498 q 175 545 188 575 q 202 605 225 622 q 248 639 279 646 q 310 652 345 652 l 742 652 q 777 652 808 646 q 839 639 862 622 q 885 605 898 575 q 912 545 912 498 z m 77 263 q 77 194 90 144 q 102 93 132 59 q 162 25 212 8 q 261 -8 335 -8 l 752 -8 q 825 -8 874 8 q 924 25 954 59 q 984 93 997 144 q 1010 194 1010 263 l 1010 461 q 1010 530 997 580 q 984 631 954 665 q 924 699 874 716 q 825 732 752 732 l 335 732 q 261 732 212 716 q 162 699 132 665 q 102 631 90 580 q 77 530 77 461 z"},"(":{"x_min":0,"x_max":370,"ha":370,"o":"m 61 216 q 61 141 78 96 q 94 52 121 28 q 148 5 184 -2 q 219 -8 257 -8 l 323 -8 l 323 72 l 261 72 q 198 72 176 98 q 153 125 153 187 l 153 497 q 153 548 160 578 q 166 609 179 626 q 192 642 212 647 q 233 652 261 652 l 323 652 l 323 732 l 257 732 q 191 732 152 714 q 114 696 94 660 q 73 625 67 574 q 61 522 61 456 z"},"C":{"x_min":0,"x_max":1012,"ha":1012,"o":"m 77 263 q 77 194 90 144 q 102 93 132 59 q 162 25 212 8 q 261 -8 335 -8 l 705 -8 q 781 -8 829 5 q 877 18 904 44 q 931 69 940 107 q 950 145 950 194 l 950 243 l 858 243 l 858 198 q 858 161 850 137 q 842 113 822 98 q 803 84 770 78 q 737 72 688 72 l 345 72 q 310 72 279 78 q 248 85 225 102 q 202 119 188 149 q 175 179 175 226 l 175 498 q 175 545 188 575 q 202 605 225 622 q 248 639 279 646 q 310 652 345 652 l 685 652 q 719 652 749 649 q 779 646 802 634 q 824 621 838 595 q 851 569 851 523 l 851 490 l 937 490 l 937 552 q 937 588 926 621 q 916 654 890 678 q 864 703 820 718 q 777 732 710 732 l 335 732 q 261 732 212 716 q 162 699 132 665 q 102 631 90 580 q 77 530 77 461 z"},"W":{"x_min":0,"x_max":1332,"ha":1332,"o":"m 294 0 l 420 0 l 666 636 l 912 0 l 1038 0 l 1326 724 l 1230 724 l 974 88 l 729 724 l 603 724 l 355 91 l 102 724 l 6 724 z"},"A":{"x_min":0,"x_max":1012,"ha":1012,"o":"m 15 0 l 126 0 l 216 153 l 796 153 l 886 0 l 997 0 l 567 724 l 445 724 z m 749 233 l 263 233 l 506 644 z"},"f":{"x_min":0,"x_max":494,"ha":494,"o":"m 139 0 l 225 0 l 225 440 l 468 440 l 468 510 l 225 510 l 225 573 q 225 607 246 630 q 266 654 314 654 l 468 654 l 468 724 l 307 724 q 272 724 241 714 q 210 705 188 685 q 165 665 152 632 q 139 600 139 555 l 139 510 l 28 510 l 28 440 l 139 440 z"},"Q":{"x_min":0,"x_max":1087,"ha":1087,"o":"m 1027 31 l 1071 100 l 998 146 q 1010 195 1010 263 l 1010 461 q 1010 530 997 580 q 984 631 954 665 q 924 699 874 716 q 825 732 752 732 l 335 732 q 261 732 212 716 q 162 699 132 665 q 102 631 90 580 q 77 530 77 461 l 77 263 q 77 194 90 144 q 102 93 132 59 q 162 25 212 8 q 261 -8 335 -8 l 752 -8 q 833 -8 884 12 q 934 31 963 71 z m 912 201 l 636 376 l 592 307 l 882 123 q 861 93 830 82 q 798 72 742 72 l 345 72 q 310 72 279 78 q 248 85 225 102 q 202 119 188 149 q 175 179 175 226 l 175 498 q 175 545 188 575 q 202 605 225 622 q 248 639 279 646 q 310 652 345 652 l 742 652 q 777 652 808 646 q 839 639 862 622 q 885 605 898 575 q 912 545 912 498 z"},"w":{"x_min":0,"x_max":1042,"ha":1042,"o":"m 239 0 l 358 0 l 521 440 l 684 0 l 803 0 l 1035 510 l 944 510 l 745 70 l 583 510 l 459 510 l 297 70 l 98 510 l 7 510 z"},"-":{"x_min":0,"x_max":444,"ha":444,"o":"m 82 225 l 362 225 l 362 305 l 82 305 z"},"E":{"x_min":0,"x_max":864,"ha":864,"o":"m 96 0 l 811 0 l 811 80 l 194 80 l 194 333 l 783 333 l 783 413 l 194 413 l 194 644 l 807 644 l 807 724 l 96 724 z"},"s":{"x_min":0,"x_max":765,"ha":765,"o":"m 62 145 q 62 88 82 56 q 103 25 138 11 q 172 -3 216 -6 q 260 -8 308 -8 l 466 -8 q 505 -8 547 -5 q 589 -2 624 12 q 658 27 680 56 q 703 86 703 140 l 703 142 q 703 194 687 224 q 671 254 642 270 q 614 285 574 289 q 534 293 486 293 l 259 293 q 225 293 204 298 q 184 302 173 310 q 162 319 158 331 q 155 343 155 359 l 155 378 q 155 400 161 414 q 167 427 184 434 q 200 442 230 445 q 259 448 305 448 l 455 448 q 490 448 518 446 q 545 445 564 438 q 582 430 592 414 q 601 397 601 368 l 601 363 l 681 363 l 681 390 q 681 417 674 440 q 666 464 643 481 q 620 498 576 508 q 533 518 460 518 l 328 518 q 248 518 198 510 q 148 501 119 484 q 90 468 80 444 q 69 420 69 389 l 69 359 q 69 286 106 254 q 144 223 235 223 l 500 223 q 539 223 562 218 q 585 213 597 204 q 609 194 613 180 q 617 165 617 147 l 617 143 q 617 114 608 98 q 600 82 580 74 q 561 66 528 64 q 495 62 447 62 l 263 62 q 197 62 170 82 q 142 103 142 151 l 142 176 l 62 176 z"},">":{"x_min":0,"x_max":600,"ha":600,"o":"m 553 291 l 47 514 l 47 428 l 444 253 l 47 78 l 47 -8 l 553 215 z"},"l":{"x_min":0,"x_max":272,"ha":272,"o":"m 93 0 l 179 0 l 179 724 l 93 724 z"},"8":{"x_min":0,"x_max":964,"ha":964,"o":"m 388 72 q 311 72 267 77 q 223 82 200 96 q 178 111 172 138 q 166 165 166 209 q 166 253 174 278 q 182 302 204 314 q 226 326 263 329 q 300 332 359 332 l 605 332 q 663 332 700 329 q 738 326 760 314 q 782 302 790 278 q 798 253 798 209 q 798 165 792 138 q 786 111 764 96 q 741 82 697 77 q 653 72 576 72 z m 364 412 q 305 412 268 415 q 231 418 210 430 q 190 443 182 468 q 175 493 175 536 q 175 570 181 592 q 187 615 205 628 q 223 642 256 647 q 288 652 341 652 l 623 652 q 676 652 708 647 q 741 642 759 628 q 777 615 783 592 q 789 570 789 536 q 789 493 782 468 q 774 443 754 430 q 733 418 696 415 q 659 412 600 412 z m 74 161 q 74 67 126 30 q 177 -8 285 -8 l 679 -8 q 787 -8 838 30 q 890 67 890 161 l 890 232 q 890 269 880 294 q 869 319 852 335 q 834 351 810 360 q 786 368 759 373 l 759 375 q 802 381 826 398 q 851 414 863 435 q 875 456 878 478 q 881 500 881 518 l 881 565 q 881 656 828 694 q 775 732 659 732 l 305 732 q 189 732 136 694 q 83 656 83 565 l 83 518 q 83 500 86 478 q 89 456 102 435 q 114 414 140 398 q 166 381 212 375 l 212 373 q 170 368 143 359 q 116 350 100 333 q 85 316 80 288 q 74 261 74 218 z"},"\\":{"x_min":0,"x_max":370,"ha":370,"o":"m 331 -8 l 415 -8 l 40 732 l -45 732 z"},"e":{"x_min":0,"x_max":765,"ha":765,"o":"m 625 310 l 144 310 q 147 353 156 380 q 164 407 184 422 q 203 437 236 442 q 269 448 320 448 l 446 448 q 498 448 533 439 q 568 430 588 416 q 608 401 616 382 q 625 363 625 344 z m 58 201 q 58 130 80 89 q 101 48 136 26 q 170 4 213 -2 q 256 -8 298 -8 l 454 -8 q 514 -8 562 0 q 609 7 642 24 q 676 42 694 71 q 711 100 711 144 l 711 154 l 625 154 q 623 125 614 107 q 604 89 585 79 q 566 69 537 66 q 508 62 468 62 l 350 62 q 294 62 254 68 q 215 75 190 92 q 166 108 155 136 q 144 164 144 208 l 144 240 l 711 240 l 711 297 q 711 365 691 408 q 671 451 636 476 q 601 500 552 509 q 504 518 446 518 l 308 518 q 262 518 218 512 q 173 506 138 484 q 102 463 80 422 q 58 381 58 312 z"},"b":{"x_min":0,"x_max":791,"ha":791,"o":"m 647 208 q 647 171 640 144 q 633 116 614 98 q 595 80 562 71 q 528 62 476 62 l 336 62 q 288 62 256 72 q 223 82 204 100 q 184 119 176 146 q 167 174 167 209 l 167 306 q 167 352 180 380 q 193 408 217 423 q 241 438 276 443 q 310 448 354 448 l 470 448 q 514 448 548 442 q 581 437 603 422 q 625 407 636 380 q 647 352 647 308 z m 81 0 l 161 0 l 161 81 l 163 81 q 182 34 231 13 q 280 -8 348 -8 l 468 -8 q 526 -8 575 1 q 624 10 659 34 q 694 57 714 99 q 733 141 733 207 l 733 297 q 733 358 720 400 q 707 442 676 468 q 644 495 592 506 q 541 518 463 518 l 332 518 q 258 518 220 500 q 183 482 169 442 l 167 442 l 167 724 l 81 724 z"},"%":{"x_min":0,"x_max":1333,"ha":1333,"o":"m 484 374 q 484 357 478 347 q 472 337 462 331 q 453 325 441 323 q 429 321 416 321 l 173 321 q 160 321 148 323 q 136 325 126 331 q 117 337 111 347 q 105 357 105 374 l 105 608 q 105 625 111 636 q 117 646 126 652 q 136 658 148 660 q 160 662 173 662 l 416 662 q 429 662 441 660 q 453 658 462 652 q 472 646 478 636 q 484 625 484 608 z m 507 -8 l 574 -8 l 821 732 l 755 732 z m 1228 115 q 1228 98 1222 88 q 1216 78 1206 72 q 1197 66 1185 64 q 1173 62 1160 62 l 917 62 q 904 62 892 64 q 880 66 870 72 q 861 78 855 88 q 849 98 849 115 l 849 349 q 849 366 855 376 q 861 387 870 393 q 880 399 892 401 q 904 403 917 403 l 1160 403 q 1173 403 1185 401 q 1197 399 1206 393 q 1216 387 1222 376 q 1228 366 1228 349 z m 25 371 q 25 329 37 305 q 49 281 68 269 q 88 257 112 254 q 135 251 158 251 l 431 251 q 454 251 478 254 q 501 257 520 269 q 540 281 552 305 q 564 329 564 371 l 564 612 q 564 654 552 678 q 540 702 520 714 q 501 726 478 729 q 454 732 431 732 l 158 732 q 135 732 112 729 q 88 726 68 714 q 49 702 37 678 q 25 654 25 612 z m 769 112 q 769 70 781 46 q 793 22 812 10 q 832 -2 856 -5 q 879 -8 902 -8 l 1175 -8 q 1198 -8 1222 -5 q 1245 -2 1264 10 q 1284 22 1296 46 q 1308 70 1308 112 l 1308 353 q 1308 395 1296 419 q 1284 443 1264 455 q 1245 467 1222 470 q 1198 473 1175 473 l 902 473 q 879 473 856 470 q 832 467 812 455 q 793 443 781 419 q 769 395 769 353 z"},"m":{"x_min":0,"x_max":1235,"ha":1235,"o":"m 81 0 l 167 0 l 167 320 q 167 382 206 415 q 245 448 328 448 l 414 448 q 465 448 498 440 q 531 432 550 416 q 568 399 575 372 q 582 346 582 309 l 582 0 l 668 0 l 668 302 q 668 333 674 360 q 679 386 698 406 q 716 425 751 436 q 786 448 844 448 l 905 448 q 956 448 988 438 q 1020 428 1038 412 q 1056 396 1062 375 q 1068 354 1068 332 l 1068 0 l 1154 0 l 1154 342 q 1154 430 1094 474 q 1035 518 931 518 l 827 518 q 761 518 712 497 q 662 476 638 424 q 618 472 575 495 q 532 518 473 518 l 334 518 q 269 518 230 504 q 190 490 163 450 l 161 450 l 161 510 l 81 510 z"},"#":{"x_min":0,"x_max":964,"ha":964,"o":"m 550 292 l 396 292 l 415 432 l 569 432 z m 319 292 l 217 292 l 217 222 l 309 222 l 279 0 l 357 0 l 387 222 l 540 222 l 510 0 l 588 0 l 618 222 l 719 222 l 719 292 l 627 292 l 646 432 l 747 432 l 747 502 l 655 502 l 685 724 l 608 724 l 578 502 l 424 502 l 454 724 l 377 724 l 347 502 l 246 502 l 246 432 l 338 432 z"},",":{"x_min":0,"x_max":482,"ha":482,"o":"m 185 0 l 223 0 q 223 -18 221 -29 q 219 -40 214 -46 q 208 -52 198 -54 q 189 -56 174 -56 l 174 -114 q 205 -114 228 -109 q 251 -104 266 -91 q 282 -78 290 -56 q 297 -35 297 -3 l 297 124 l 185 124 z"},"n":{"x_min":0,"x_max":791,"ha":791,"o":"m 81 0 l 167 0 l 167 290 q 167 335 178 366 q 188 396 216 414 q 243 432 291 440 q 339 448 414 448 l 436 448 q 499 448 536 439 q 573 430 592 414 q 612 398 618 375 q 624 352 624 324 l 624 0 l 710 0 l 710 345 q 710 379 700 410 q 689 442 664 466 q 640 490 599 504 q 558 518 498 518 l 369 518 q 329 518 296 514 q 263 510 238 500 q 212 489 194 470 q 175 452 163 422 l 161 422 l 161 510 l 81 510 z"},"h":{"x_min":0,"x_max":791,"ha":791,"o":"m 81 0 l 167 0 l 167 290 q 167 335 178 366 q 188 396 216 414 q 243 432 291 440 q 339 448 414 448 l 436 448 q 499 448 536 439 q 573 430 592 414 q 612 398 618 375 q 624 352 624 324 l 624 0 l 710 0 l 710 345 q 710 379 700 410 q 689 442 664 466 q 640 490 599 504 q 558 518 498 518 l 375 518 q 335 518 302 514 q 269 510 244 500 q 218 489 200 470 q 181 452 169 422 l 167 422 l 167 724 l 81 724 z"},"z":{"x_min":0,"x_max":667,"ha":667,"o":"m 45 0 l 622 0 l 622 70 l 163 70 l 163 72 l 616 440 l 616 510 l 60 510 l 60 440 l 498 440 l 498 438 l 45 70 z"},"B":{"x_min":0,"x_max":1012,"ha":1012,"o":"m 836 177 q 836 129 808 104 q 781 80 712 80 l 194 80 l 194 333 l 697 333 q 730 333 756 330 q 782 326 800 315 q 818 304 827 284 q 836 263 836 229 z m 808 502 q 808 475 798 458 q 789 440 774 430 q 759 421 740 417 q 720 413 700 413 l 194 413 l 194 644 l 705 644 q 716 644 734 642 q 751 639 768 631 q 784 623 796 608 q 808 593 808 568 z m 96 0 l 724 0 q 769 0 808 10 q 846 20 874 40 q 902 59 918 88 q 934 116 934 154 l 934 240 q 934 281 922 308 q 910 335 890 351 q 870 367 844 374 q 818 381 789 383 l 789 387 q 822 390 844 401 q 867 412 880 428 q 894 444 900 462 q 906 481 906 501 l 906 563 q 906 594 897 623 q 888 652 866 674 q 844 697 807 710 q 770 724 714 724 l 96 724 z"},"K":{"x_min":0,"x_max":987,"ha":987,"o":"m 96 0 l 194 0 l 194 337 l 309 337 l 806 0 l 978 0 l 980 2 l 414 376 l 933 722 l 931 724 l 771 724 l 317 417 l 194 417 l 194 724 l 96 724 z"},"R":{"x_min":0,"x_max":987,"ha":987,"o":"m 90 0 l 188 0 l 188 286 l 666 286 q 699 286 726 282 q 753 278 772 265 q 790 252 800 226 q 810 201 810 159 l 810 0 l 902 0 l 902 185 q 902 210 896 232 q 891 253 878 271 q 864 289 840 302 q 815 314 778 321 l 778 323 q 806 326 830 333 q 855 340 873 356 q 891 371 901 396 q 911 422 911 460 l 911 519 q 911 570 902 608 q 894 647 868 672 q 843 698 795 711 q 747 724 669 724 l 90 724 z m 188 366 l 188 644 l 634 644 q 688 644 722 638 q 757 633 778 620 q 798 608 806 588 q 813 567 813 537 l 813 471 q 813 414 776 390 q 740 366 658 366 z"},"T":{"x_min":0,"x_max":864,"ha":864,"o":"m 383 0 l 481 0 l 481 644 l 847 644 l 847 724 l 17 724 l 17 644 l 383 644 z"},"P":{"x_min":0,"x_max":939,"ha":939,"o":"m 96 0 l 194 0 l 194 285 l 673 285 q 753 285 798 300 q 843 315 866 346 q 888 376 894 422 q 899 467 899 527 q 899 590 885 629 q 871 668 845 689 q 819 710 780 717 q 741 724 692 724 l 96 724 z m 801 468 q 801 411 768 388 q 736 365 677 365 l 194 365 l 194 644 l 669 644 q 701 644 726 640 q 750 635 767 623 q 784 611 792 590 q 801 569 801 537 z"},"|":{"x_min":0,"x_max":222,"ha":222,"o":"m 71 750 l 71 -250 l 151 -250 l 151 750 z"},"t":{"x_min":0,"x_max":593,"ha":593,"o":"m 127 153 q 127 122 136 93 q 144 64 166 42 q 188 19 227 6 q 266 -8 326 -8 l 373 -8 q 443 -8 482 6 q 521 20 540 45 q 560 70 564 104 q 569 137 569 175 l 569 231 l 499 231 l 499 193 q 499 153 494 128 q 490 102 476 88 q 462 73 436 68 q 410 62 367 62 l 340 62 q 305 62 280 68 q 256 74 241 88 q 226 103 220 126 q 213 150 213 186 l 213 440 l 554 440 l 554 510 l 213 510 l 213 631 l 127 631 l 127 510 l 15 510 l 15 440 l 127 440 z"},"M":{"x_min":0,"x_max":1332,"ha":1332,"o":"m 90 0 l 188 0 l 188 636 l 190 636 l 631 0 l 701 0 l 1142 636 l 1144 636 l 1144 0 l 1242 0 l 1242 724 l 1089 724 l 666 117 l 243 724 l 90 724 z"},"g":{"x_min":0,"x_max":791,"ha":791,"o":"m 624 230 q 624 164 586 128 q 548 93 456 93 l 290 93 q 251 93 223 100 q 195 108 178 126 q 160 143 152 172 q 144 202 144 246 l 144 340 q 144 371 156 392 q 167 413 188 426 q 208 438 236 443 q 263 448 296 448 l 471 448 q 516 448 546 437 q 576 426 594 406 q 611 385 618 356 q 625 328 624 292 z m 710 510 l 630 510 l 630 419 l 628 419 q 618 450 602 470 q 585 489 564 500 q 543 510 519 514 q 495 518 471 518 l 288 518 q 252 518 212 512 q 171 506 137 484 q 103 463 80 422 q 58 381 58 312 l 58 227 q 58 128 111 76 q 164 23 272 23 l 449 23 q 494 23 524 28 q 554 34 574 44 q 593 55 604 70 q 615 84 622 102 l 624 102 l 624 26 q 624 -26 610 -54 q 597 -82 568 -96 q 540 -109 495 -112 q 450 -114 386 -114 l 302 -114 q 272 -114 245 -110 q 218 -106 198 -96 q 178 -87 166 -70 q 154 -54 154 -29 l 154 -15 l 74 -15 l 74 -32 q 74 -56 83 -83 q 92 -110 114 -132 q 137 -155 176 -170 q 215 -184 274 -184 l 468 -184 q 508 -184 551 -177 q 594 -170 629 -150 q 664 -129 687 -93 q 710 -57 710 1 z"},"j":{"x_min":0,"x_max":272,"ha":272,"o":"m 9 -178 l 43 -178 q 109 -178 144 -146 q 179 -113 179 -59 l 179 510 l 93 510 l 93 -46 q 93 -84 76 -96 q 59 -108 9 -108 z m 93 630 l 179 630 l 179 724 l 93 724 z"},"i":{"x_min":0,"x_max":272,"ha":272,"o":"m 93 0 l 179 0 l 179 510 l 93 510 z m 93 630 l 179 630 l 179 724 l 93 724 z"},"y":{"x_min":0,"x_max":667,"ha":667,"o":"m 109 -190 q 175 -189 218 -184 q 260 -179 288 -165 q 317 -151 336 -126 q 355 -102 375 -63 l 663 510 l 570 510 l 348 59 l 101 510 l 4 510 l 293 -8 l 314 -8 q 297 -47 282 -69 q 266 -91 244 -102 q 222 -114 190 -117 q 158 -120 109 -120 z"},"@":{"x_min":0,"x_max":800,"ha":800,"o":"m 285 319 q 285 348 295 378 q 305 409 322 434 q 340 458 364 474 q 388 489 417 489 q 450 489 474 462 q 498 436 498 394 q 498 364 488 332 q 478 301 460 276 q 442 250 418 234 q 393 217 365 217 q 328 217 306 244 q 285 272 285 319 z m 667 156 q 616 101 558 76 q 499 50 426 50 q 358 50 300 72 q 243 95 201 136 q 159 177 136 234 q 112 291 112 360 q 112 422 134 476 q 156 529 196 568 q 236 607 292 630 q 348 652 415 652 q 472 652 522 636 q 571 621 608 590 q 645 560 666 515 q 688 470 688 412 q 688 371 676 336 q 665 300 647 274 q 629 247 606 232 q 584 217 562 217 q 551 217 548 224 q 544 232 544 243 q 544 254 546 266 q 548 277 551 288 l 620 547 l 543 547 l 526 489 q 506 527 476 543 q 446 559 411 559 q 365 559 327 537 q 289 515 262 479 q 235 443 220 398 q 205 353 205 307 q 205 275 216 246 q 227 217 246 195 q 265 173 290 160 q 315 147 343 147 q 375 147 404 164 q 434 181 456 205 l 458 205 q 458 176 476 162 q 493 147 516 147 q 545 147 586 164 q 628 181 666 216 q 704 251 731 304 q 758 357 758 428 q 758 496 730 552 q 702 608 654 648 q 607 688 545 710 q 483 732 416 732 q 339 732 271 704 q 203 675 152 625 q 101 575 72 508 q 42 441 42 363 q 42 276 72 207 q 101 138 152 90 q 204 42 273 17 q 342 -8 421 -8 q 515 -8 595 35 q 675 78 725 156 z"},".":{"x_min":0,"x_max":482,"ha":482,"o":"m 185 0 l 297 0 l 297 124 l 185 124 z"},"p":{"x_min":0,"x_max":791,"ha":791,"o":"m 647 202 q 647 158 636 130 q 625 103 604 88 q 584 73 554 68 q 524 62 487 62 l 334 62 q 300 62 270 67 q 239 72 216 87 q 194 102 180 130 q 167 158 167 204 l 167 301 q 167 367 202 408 q 238 448 323 448 l 494 448 q 539 448 569 439 q 599 430 616 412 q 633 394 640 366 q 647 339 647 302 z m 81 -178 l 167 -178 l 167 68 l 169 68 q 183 28 216 10 q 250 -8 319 -8 l 483 -8 q 549 -8 596 4 q 644 15 674 41 q 705 67 719 109 q 733 151 733 213 l 733 303 q 733 369 714 411 q 694 453 661 476 q 628 500 586 509 q 543 518 497 518 l 334 518 q 277 518 230 497 q 182 476 163 429 l 161 429 l 161 510 l 81 510 z"},"X":{"x_min":0,"x_max":1012,"ha":1012,"o":"m 21 0 l 164 0 l 506 336 l 853 0 l 991 0 l 592 383 l 946 724 l 811 724 l 506 433 l 205 724 l 66 724 l 420 383 z"},"*":{"x_min":0,"x_max":592,"ha":592,"o":"m 351 492 l 296 460 l 242 492 l 242 554 l 296 586 l 351 554 z m 82 491 l 241 491 l 161 354 l 217 322 l 296 459 l 375 322 l 431 354 l 352 491 l 510 491 l 510 555 l 352 555 l 431 692 l 375 724 l 296 587 l 217 724 l 161 692 l 241 555 l 82 555 z"},"Y":{"x_min":0,"x_max":964,"ha":964,"o":"m 433 0 l 531 0 l 531 306 l 946 724 l 814 724 l 482 388 l 150 724 l 18 724 l 433 306 z"},"c":{"x_min":0,"x_max":741,"ha":741,"o":"m 58 198 q 58 129 80 88 q 103 47 136 26 q 169 4 206 -2 q 243 -8 272 -8 l 466 -8 q 526 -8 568 2 q 611 12 638 34 q 665 55 678 89 q 690 123 690 171 l 690 186 l 610 186 l 610 169 q 610 138 598 118 q 587 97 566 84 q 546 72 520 67 q 493 62 463 62 l 318 62 q 279 62 247 68 q 215 74 192 90 q 169 105 156 132 q 144 159 144 202 l 144 309 q 144 357 157 384 q 170 412 192 426 q 214 440 242 444 q 271 448 301 448 l 459 448 q 491 448 518 444 q 544 439 562 428 q 581 416 591 396 q 601 375 601 343 l 601 331 l 681 331 l 681 345 q 681 426 630 472 q 578 518 458 518 l 314 518 q 267 518 221 512 q 175 506 139 484 q 103 463 80 422 q 58 381 58 312 z"},"!":{"x_min":0,"x_max":482,"ha":482,"o":"m 185 0 l 297 0 l 297 124 l 185 124 z m 201 210 l 281 210 l 281 724 l 201 724 z"},"/":{"x_min":0,"x_max":370,"ha":370,"o":"m -45 -8 l 39 -8 l 415 732 l 330 732 z"},"[":{"x_min":0,"x_max":370,"ha":370,"o":"m 73 0 l 329 0 l 329 80 l 159 80 l 159 644 l 329 644 l 329 724 l 73 724 z"},"6":{"x_min":0,"x_max":964,"ha":964,"o":"m 413 72 q 350 72 304 74 q 258 76 229 90 q 200 103 186 132 q 172 160 172 213 q 172 253 179 280 q 186 307 210 323 q 233 339 278 346 q 322 353 397 353 l 537 353 q 627 353 678 350 q 730 346 755 332 q 780 318 786 291 q 792 264 792 218 q 792 163 780 134 q 767 104 738 90 q 709 77 662 74 q 615 72 547 72 z m 783 510 l 875 510 l 875 542 q 875 586 864 621 q 852 656 822 681 q 791 706 738 719 q 686 732 605 732 l 310 732 q 273 732 232 724 q 192 715 158 694 q 124 672 102 635 q 80 598 80 542 l 80 203 q 80 129 104 87 q 127 45 166 24 q 204 3 252 -2 q 300 -8 348 -8 l 592 -8 q 653 -8 706 -4 q 760 1 800 20 q 839 40 862 79 q 884 118 884 187 l 884 255 q 884 349 834 391 q 784 433 678 433 l 344 433 q 318 433 292 430 q 267 427 244 417 q 221 407 202 388 q 184 370 174 339 l 172 339 l 172 535 q 172 571 186 594 q 201 617 223 630 q 245 643 272 648 q 299 652 324 652 l 621 652 q 670 652 702 645 q 733 638 751 625 q 769 612 776 594 q 783 576 783 554 z"},"r":{"x_min":0,"x_max":642,"ha":642,"o":"m 88 0 l 174 0 l 174 324 q 174 349 182 372 q 191 394 208 411 q 224 428 250 438 q 275 448 309 448 l 362 448 q 419 448 454 443 q 490 438 509 422 q 528 407 534 378 q 541 349 541 302 l 541 280 l 621 280 l 621 341 q 621 388 610 422 q 599 455 574 476 q 549 498 508 508 q 467 518 407 518 l 326 518 q 304 518 282 514 q 259 511 238 502 q 217 493 200 477 q 182 461 170 436 l 168 436 l 168 510 l 88 510 z"},"2":{"x_min":0,"x_max":964,"ha":964,"o":"m 73 0 l 891 0 l 891 80 l 165 80 l 165 144 q 165 180 172 201 q 180 222 206 234 q 232 246 283 252 q 334 258 420 264 l 570 274 q 659 280 719 288 q 779 296 815 318 q 851 340 866 382 q 881 423 881 495 q 881 549 872 592 q 863 636 836 667 q 810 698 762 715 q 714 732 636 732 l 330 732 q 202 732 139 686 q 76 639 76 525 l 76 457 l 168 457 l 168 497 q 168 551 179 582 q 190 613 212 628 q 233 644 264 648 q 294 652 333 652 l 637 652 q 686 652 716 643 q 745 634 762 616 q 778 597 784 568 q 789 539 789 500 q 789 465 785 441 q 781 417 766 400 q 750 384 720 375 q 689 366 636 362 l 314 339 q 252 334 207 323 q 162 312 132 288 q 102 265 88 226 q 73 187 73 128 z"},"{":{"x_min":0,"x_max":370,"ha":370,"o":"m 46 327 q 61 327 76 320 q 92 312 104 298 q 117 284 125 264 q 133 243 133 216 l 133 132 q 133 99 144 74 q 155 50 172 34 q 188 17 208 8 q 228 0 246 0 l 324 0 l 324 70 l 269 70 q 254 70 244 77 q 234 84 228 96 q 223 107 221 121 q 219 135 219 150 l 219 230 q 219 268 208 292 q 198 317 183 332 q 168 346 152 352 q 136 359 126 361 l 126 363 q 136 365 152 372 q 168 379 183 394 q 198 408 208 431 q 219 454 219 489 l 219 574 q 219 589 221 603 q 223 617 228 628 q 234 640 244 647 q 254 654 269 654 l 324 654 l 324 724 l 246 724 q 228 724 208 716 q 188 707 172 690 q 155 674 144 650 q 133 625 133 592 l 133 503 q 133 478 125 458 q 117 439 104 426 q 92 412 76 404 q 61 397 46 397 z"},"9":{"x_min":0,"x_max":964,"ha":964,"o":"m 427 371 q 337 371 286 374 q 234 378 209 392 q 184 406 178 432 q 172 459 172 506 q 172 561 184 590 q 197 620 226 634 q 255 647 302 650 q 349 652 417 652 l 551 652 q 614 652 660 650 q 706 648 735 634 q 764 621 778 592 q 792 564 792 511 q 792 471 785 444 q 778 417 754 401 q 731 385 686 378 q 642 371 567 371 z m 89 182 q 89 138 100 103 q 112 68 142 43 q 173 18 226 5 q 278 -8 359 -8 l 654 -8 q 691 -8 732 0 q 772 9 806 30 q 840 52 862 89 q 884 126 884 182 l 884 521 q 884 594 860 636 q 837 679 798 700 q 760 721 712 726 q 664 732 616 732 l 372 732 q 310 732 257 728 q 204 723 164 704 q 125 684 102 645 q 80 606 80 537 l 80 469 q 80 375 130 333 q 180 291 286 291 l 620 291 q 645 291 671 294 q 697 297 720 306 q 743 316 762 334 q 780 353 790 383 l 792 383 l 792 189 q 792 153 778 130 q 763 107 741 94 q 719 81 692 76 q 665 72 640 72 l 343 72 q 294 72 262 79 q 231 86 213 99 q 195 112 188 130 q 181 148 181 170 l 181 214 l 89 214 z"}," ":{"x_min":0,"x_max":482,"ha":482,"o":""},"I":{"x_min":0,"x_max":296,"ha":296,"o":"m 99 0 l 197 0 l 197 724 l 99 724 z"},"H":{"x_min":0,"x_max":1042,"ha":1042,"o":"m 96 0 l 194 0 l 194 333 l 848 333 l 848 0 l 946 0 l 946 724 l 848 724 l 848 413 l 194 413 l 194 724 l 96 724 z"},"4":{"x_min":0,"x_max":964,"ha":964,"o":"m 49 152 l 686 152 l 686 0 l 778 0 l 778 152 l 899 152 l 899 232 l 778 232 l 778 724 l 644 724 l 49 266 z m 686 232 l 141 232 l 141 234 l 686 654 z"},"~":{"x_min":0,"x_max":600,"ha":600,"o":"m 105 179 q 114 192 123 205 q 132 218 142 228 q 153 239 166 246 q 178 252 193 252 q 211 252 236 242 q 261 231 290 217 q 318 204 348 194 q 377 185 406 185 q 431 185 450 192 q 470 199 485 211 q 500 223 512 238 q 523 253 531 269 l 495 328 q 486 315 477 302 q 468 289 458 278 q 447 268 434 262 q 422 255 407 255 q 389 255 364 266 q 339 276 310 290 q 282 303 252 312 q 223 322 194 322 q 169 322 150 315 q 130 308 115 296 q 100 284 88 269 q 77 254 69 238 z"},"D":{"x_min":0,"x_max":1061,"ha":1061,"o":"m 886 323 q 886 242 872 194 q 857 145 830 120 q 804 95 767 88 q 730 80 685 80 l 188 80 l 188 644 l 701 644 q 746 644 780 635 q 815 626 838 599 q 862 572 874 524 q 886 475 886 397 z m 90 0 l 672 0 q 764 0 824 19 q 885 38 920 81 q 956 124 970 193 q 984 262 984 362 q 984 469 970 539 q 956 609 920 650 q 885 691 826 708 q 766 724 675 724 l 90 724 z"},"^":{"x_min":0,"x_max":600,"ha":600,"o":"m 60 320 l 140 320 l 300 644 l 460 320 l 540 320 l 341 724 l 259 724 z"},"0":{"x_min":0,"x_max":964,"ha":964,"o":"m 61 234 q 61 175 72 130 q 84 85 112 54 q 140 23 188 8 q 236 -8 310 -8 l 654 -8 q 727 -8 776 8 q 824 23 852 54 q 880 85 892 130 q 903 175 903 234 l 903 490 q 903 549 892 594 q 880 639 852 670 q 824 701 776 716 q 727 732 654 732 l 310 732 q 236 732 188 716 q 140 701 112 670 q 84 639 72 594 q 61 549 61 490 z m 811 280 q 811 209 804 168 q 796 127 773 106 q 750 84 706 78 q 663 72 591 72 l 373 72 q 301 72 258 78 q 214 84 191 106 q 168 127 160 168 q 153 209 153 280 l 153 444 q 153 514 160 556 q 168 597 191 618 q 214 640 258 646 q 301 652 373 652 l 591 652 q 663 652 706 646 q 750 640 773 618 q 796 597 804 556 q 811 514 811 444 z"},"F":{"x_min":0,"x_max":839,"ha":839,"o":"m 96 0 l 194 0 l 194 333 l 763 333 l 763 413 l 194 413 l 194 644 l 786 644 l 786 724 l 96 724 z"},"`":{"x_min":0,"x_max":272,"ha":272,"o":"m 153 588 l 220 588 l 72 773 l -31 773 z"},"k":{"x_min":0,"x_max":716,"ha":716,"o":"m 81 0 l 167 0 l 167 247 l 204 247 l 573 0 l 707 0 l 709 2 l 290 282 l 642 508 l 640 510 l 506 510 l 209 317 l 167 317 l 167 724 l 81 724 z"},"u":{"x_min":0,"x_max":791,"ha":791,"o":"m 630 0 l 710 0 l 710 510 l 624 510 l 624 220 q 624 175 614 144 q 603 114 576 96 q 548 78 500 70 q 452 62 377 62 l 355 62 q 292 62 255 71 q 218 80 198 96 q 179 112 173 135 q 167 158 167 186 l 167 510 l 81 510 l 81 165 q 81 130 92 99 q 102 68 126 44 q 151 20 192 6 q 233 -8 293 -8 l 422 -8 q 462 -8 495 -4 q 528 0 554 10 q 579 21 598 40 q 616 58 628 88 l 630 88 z"},"]":{"x_min":0,"x_max":370,"ha":370,"o":"m 41 0 l 297 0 l 297 724 l 41 724 l 41 644 l 211 644 l 211 80 l 41 80 z"},"U":{"x_min":0,"x_max":1042,"ha":1042,"o":"m 96 182 q 96 127 110 90 q 125 54 156 32 q 187 10 236 1 q 285 -8 354 -8 l 688 -8 q 757 -8 806 1 q 855 10 886 32 q 917 54 932 90 q 946 127 946 182 l 946 724 l 848 724 l 848 183 q 848 157 842 136 q 836 115 819 101 q 802 87 772 80 q 741 72 691 72 l 351 72 q 301 72 270 80 q 240 87 223 101 q 206 115 200 136 q 194 157 194 183 l 194 724 l 96 724 z"},"o":{"x_min":0,"x_max":815,"ha":815,"o":"m 64 199 q 64 136 85 96 q 106 56 144 32 q 181 9 233 0 q 285 -8 346 -8 l 469 -8 q 530 -8 582 0 q 634 9 672 32 q 709 56 730 96 q 751 136 751 199 l 751 311 q 751 374 730 414 q 709 454 672 478 q 634 501 582 510 q 530 518 469 518 l 346 518 q 285 518 233 510 q 181 501 144 478 q 106 454 85 414 q 64 374 64 311 z m 665 204 q 665 159 652 132 q 640 104 618 88 q 595 73 564 68 q 532 62 495 62 l 320 62 q 282 62 251 68 q 220 73 198 88 q 175 104 162 132 q 150 159 150 204 l 150 306 q 150 351 162 378 q 175 406 198 422 q 220 437 251 442 q 282 448 320 448 l 495 448 q 532 448 564 442 q 595 437 618 422 q 640 406 652 378 q 665 351 665 306 z"},"N":{"x_min":0,"x_max":1087,"ha":1087,"o":"m 90 0 l 188 0 l 188 636 l 851 0 l 997 0 l 997 724 l 899 724 l 899 88 l 236 724 l 90 724 z"},"+":{"x_min":0,"x_max":600,"ha":600,"o":"m 265 0 l 335 0 l 335 218 l 553 218 l 553 288 l 335 288 l 335 506 l 265 506 l 265 288 l 47 288 l 47 218 l 265 218 z"},"G":{"x_min":0,"x_max":1061,"ha":1061,"o":"m 984 359 l 515 359 l 515 279 l 886 279 l 886 206 q 886 131 844 102 q 802 72 728 72 l 345 72 q 310 72 279 78 q 248 85 225 102 q 202 119 188 149 q 175 179 175 226 l 175 498 q 175 545 188 575 q 202 605 225 622 q 248 639 279 646 q 310 652 345 652 l 599 652 q 690 652 746 648 q 801 645 832 630 q 862 616 872 587 q 882 558 882 507 l 974 507 l 974 533 q 974 596 950 634 q 926 673 888 695 q 850 717 802 724 q 754 732 705 732 l 335 732 q 261 732 212 716 q 162 699 132 665 q 102 631 90 580 q 77 530 77 461 l 77 263 q 77 194 90 144 q 102 93 132 59 q 162 25 212 8 q 261 -8 335 -8 l 739 -8 q 807 -8 854 6 q 900 20 929 52 q 958 83 971 134 q 984 185 984 259 z"},"q":{"x_min":0,"x_max":791,"ha":791,"o":"m 624 204 q 624 158 610 130 q 597 102 574 87 q 552 72 522 67 q 491 62 457 62 l 304 62 q 266 62 236 68 q 207 73 186 88 q 166 103 155 130 q 144 158 144 202 l 144 302 q 144 339 151 366 q 158 394 175 412 q 192 430 222 439 q 252 448 297 448 l 468 448 q 553 448 588 408 q 624 367 624 301 z m 624 -178 l 710 -178 l 710 510 l 630 510 l 630 429 l 628 429 q 609 476 562 497 q 514 518 457 518 l 294 518 q 248 518 206 509 q 163 500 130 476 q 97 453 78 411 q 58 369 58 303 l 58 213 q 58 151 72 109 q 86 67 116 41 q 147 15 194 4 q 242 -8 308 -8 l 472 -8 q 541 -8 574 10 q 608 28 622 68 l 624 68 z"},"d":{"x_min":0,"x_max":791,"ha":791,"o":"m 144 308 q 144 352 155 380 q 166 407 188 422 q 210 437 244 442 q 277 448 321 448 l 437 448 q 480 448 515 443 q 550 438 574 423 q 598 408 611 380 q 624 352 624 306 l 624 209 q 624 174 616 146 q 607 119 588 100 q 568 82 536 72 q 503 62 455 62 l 315 62 q 262 62 229 71 q 196 80 177 98 q 158 116 151 144 q 144 171 144 208 z m 710 724 l 624 724 l 624 442 l 622 442 q 608 482 570 500 q 533 518 459 518 l 328 518 q 250 518 198 506 q 147 495 116 468 q 84 442 71 400 q 58 358 58 297 l 58 207 q 58 141 78 99 q 97 57 132 34 q 167 10 216 1 q 264 -8 323 -8 l 443 -8 q 511 -8 560 13 q 609 34 628 81 l 630 81 l 630 0 l 710 0 z"},"1":{"x_min":0,"x_max":964,"ha":964,"o":"m 510 0 l 602 0 l 602 724 l 487 724 l 189 488 l 239 425 l 510 640 z"},"5":{"x_min":0,"x_max":964,"ha":964,"o":"m 89 338 l 177 338 q 186 363 200 378 q 213 393 232 401 q 251 409 275 411 q 299 413 328 413 l 607 413 q 662 413 700 406 q 737 399 760 383 q 782 367 792 340 q 802 313 802 273 l 802 240 q 802 190 796 158 q 791 125 770 106 q 749 87 707 80 q 665 72 592 72 l 315 72 q 264 72 234 82 q 205 92 190 111 q 175 130 171 158 q 167 185 167 221 l 75 221 l 75 206 q 75 149 86 108 q 97 68 122 42 q 148 16 191 4 q 234 -8 299 -8 l 622 -8 q 714 -8 768 6 q 822 20 850 46 q 878 73 886 112 q 894 150 894 199 l 894 287 q 894 347 878 387 q 862 427 830 450 q 798 474 750 484 q 703 493 641 493 l 400 493 q 346 493 310 490 q 274 488 250 480 q 226 471 210 456 q 195 442 183 418 l 181 418 l 181 644 l 868 644 l 868 724 l 89 724 z"}}}
